<?xml version="1.0" encoding="iso-8859-1"?>
<!-- Generator: Adobe Illustrator 19.0.0, SVG Export Plug-In . SVG Version: 6.00 Build 0)  -->
<svg xmlns="http://www.w3.org/2000/svg" xmlns:xlink="http://www.w3.org/1999/xlink" version="1.1" id="Layer_1" x="0px" y="0px" viewBox="0 0 512.001 512.001" style="enable-background:new 0 0 512.001 512.001;" xml:space="preserve" width="512px" height="512px">
<g>
	<g>
		<path d="M256.001,0c-71.047,0-129.186,57.803-129.186,128.852v289.064c0,51.879,42.374,94.086,94.253,94.086    c51.879,0,94.253-42.207,94.253-94.086v-252.49c0-32.709-26.611-59.32-59.32-59.32s-59.32,26.611-59.32,59.32v218.587    c0,10.92,8.853,19.773,19.773,19.773c10.92,0,19.773-8.853,19.773-19.773V165.426c0-10.903,8.87-19.773,19.773-19.773    s19.773,8.87,19.773,19.773v252.49c0,30.073-24.634,54.539-54.706,54.539s-54.706-24.466-54.706-54.539V128.852    c0-49.242,40.397-89.305,89.64-89.305s89.64,40.062,89.64,89.305v270.553c0,10.92,8.853,19.773,19.773,19.773    c10.92,0,19.773-8.853,19.773-19.773V128.852C385.187,57.803,327.049,0,256.001,0z" fill="#FFFFFF"/>
	</g>
</g>
<g>
</g>
<g>
</g>
<g>
</g>
<g>
</g>
<g>
</g>
<g>
</g>
<g>
</g>
<g>
</g>
<g>
</g>
<g>
</g>
<g>
</g>
<g>
</g>
<g>
</g>
<g>
</g>
<g>
</g>
</svg>
