<?xml version="1.0" ?><svg id="Layer_1" style="enable-background:new 0 0 96 96;" version="1.1" viewBox="0 0 96 96" xml:space="preserve" xmlns="http://www.w3.org/2000/svg" xmlns:xlink="http://www.w3.org/1999/xlink"><style type="text/css">
	.st0{fill-rule:evenodd;clip-rule:evenodd;fill:#5C6061;}
	.st1{fill-rule:evenodd;clip-rule:evenodd;fill:#56ADD9;}
	.st2{fill-rule:evenodd;clip-rule:evenodd;fill:#2B2D2D;}
	.st3{fill-rule:evenodd;clip-rule:evenodd;fill:#00A651;}
	.st4{fill-rule:evenodd;clip-rule:evenodd;fill:#EBC32E;}
	.st5{fill-rule:evenodd;clip-rule:evenodd;fill:#D1D3D4;}
</style><g id="XMLID_2_"><g id="XMLID_8_"><path class="st0" d="M24.1,0h48c2.2,0,4,1.8,4,4v88c0,2.2-1.8,4-4,4h-48c-2.2,0-4-1.8-4-4V4    C20.1,1.8,21.9,0,24.1,0L24.1,0z M24.1,12v72h48V12H24.1z" id="XMLID_13_"/><rect class="st1" height="72" id="XMLID_12_" width="48" x="24.1" y="12"/><path class="st2" d="M42.1,4h12c1.1,0,2,0.9,2,2v0c0,1.1-0.9,2-2,2h-12c-1.1,0-2-0.9-2-2v0C40.1,4.9,41,4,42.1,4z" id="XMLID_11_"/><path class="st2" d="M32.1,8c1.1,0,2-0.9,2-2c0-1.1-0.9-2-2-2c-1.1,0-2,0.9-2,2C30.1,7.1,31,8,32.1,8z" id="XMLID_10_"/><path class="st2" d="M44.1,88h8c1.1,0,2,0.9,2,2v0c0,1.1-0.9,2-2,2h-8c-1.1,0-2-0.9-2-2v0C42.1,88.9,43,88,44.1,88z    " id="XMLID_9_"/></g><polygon class="st3" id="XMLID_7_" points="72.1,44.3 72.1,84 24.1,84 24.1,62 36.1,52 50.1,66 70.1,42  "/><path class="st4" d="M32.5,24.5c2.7,0,4.9-2.2,4.9-4.9s-2.2-4.9-4.9-4.9c-2.7,0-4.9,2.2-4.9,4.9S29.8,24.5,32.5,24.5   z" id="XMLID_6_"/><path class="st5" d="M41,60.3h14.2c6.5,0,11.9,5.3,11.9,11.9V84h-38V72.1C29.1,65.6,34.5,60.3,41,60.3L41,60.3z    M48.1,36.5c5.6,0,10.2,4.6,10.2,10.2c0,5.6-4.6,10.2-10.2,10.2c-5.6,0-10.2-4.6-10.2-10.2C37.9,41.1,42.5,36.5,48.1,36.5z" id="XMLID_3_"/></g></svg>